# AST/ASF file generated using VICON BodyLanguage
# -----------------------------------------------
:version 1.10
:name VICON
:units
  mass 1.0
  length 0.45
  angle deg
:documentation
   .ast/.asf automatically generated from VICON data using
   VICON BodyBuilder and BodyLanguage model FoxedUp or BRILLIANT.MOD
:root
   order TX TY TZ RX RY RZ
   axis XYZ
   position 0 0 0  
   orientation 0 0 0 
:bonedata
  begin
     id 1 
     name lhipjoint
     direction 0.690799 -0.707083 0.151096 
     length 2.54797 
     axis 0 0 0  XYZ
  end
  begin
     id 2 
     name lfemur
     direction 0.34202 -0.939693 0  
     length 7.21646  
     axis 0 0 20  XYZ
    dof rx ry rz
    limits (-160.0 20.0)
           (-70.0 70.0)
           (-60.0 70.0)
  end
  begin
     id 3 
     name ltibia
     direction 0.34202 -0.939693 0   
     length 8.16759   
     axis 0 0 20   XYZ
    dof rx
    limits (-10.0 170.0)
  end
  begin
     id 4 
     name lfoot
     direction 0.0487203 -0.133858 0.989802   
     length 1.93375   
     axis -90 7.62852e-016 20   XYZ
    dof rx rz
    limits (-45.0 90.0)
           (-70.0 20.0)
  end
  begin
     id 5 
     name ltoes
     direction 1.53453e-011 -4.21783e-011 1   
     length 0.979747   
     axis -90 7.62852e-016 20   XYZ
    dof rx
    limits (-90.0 20.0)
  end
  begin
     id 6 
     name rhipjoint
     direction -0.694693 -0.703425 0.150315   
     length 2.56122  
     axis 0 0 0  XYZ 
  end
  begin
     id 7 
     name rfemur
     direction -0.34202 -0.939693 0   
     length 7.36786   
     axis 0 0 -20   XYZ
    dof rx ry rz
    limits (-160.0 20.0)
           (-70.0 70.0)
           (-70.0 60.0)
  end
  begin
     id 8 
     name rtibia
     direction -0.34202 -0.939693 0   
     length 8.07288   
     axis 0 0 -20   XYZ
    dof rx
    limits (-10.0 170.0)
 end
 begin
     id 9 
     name rfoot
     direction -0.0428397 -0.117701 0.992125   
     length 1.88295  
     axis -90 -7.62852e-016 -20   XYZ
    dof rx rz
    limits (-45.0 90.0)
           (-20.0 70.0)
  end
  begin
     id 10 
     name rtoes
     direction -1.53456e-011 -4.2187e-011 1   
     length 0.955578   
     axis -90 -7.62852e-016 -20   XYZ
    dof rx
    limits (-90.0 20.0)
  end
  begin
     id 11 
     name lowerback
     direction 0.0288145 0.999398 -0.0193241   
     length 1.92149   
     axis 0 0 0   XYZ
    dof rx ry rz
    limits (-20.0 45.0)
           (-30.0 30.0)
           (-30.0 30.0)
  end
  begin
     id 12 
     name upperback
     direction 0.0233784 0.998099 0.0570278   
     length 1.90435   
     axis 0 0 0   XYZ
    dof rx ry rz
    limits (-20.0 45.0)
           (-30.0 30.0)
           (-30.0 30.0)
  end
  begin
     id 13 
     name thorax
     direction 0.0096694 0.997833 0.0650817   
     length 1.9111   
     axis 0 0 0   XYZ
    dof rx ry rz
    limits (-20.0 45.0)
           (-30.0 30.0)
           (-30.0 30.0)
  end
  begin
     id 14 
     name lowerneck
     direction 0.00516803 0.999916 0.0118722   
     length 1.74664   
     axis 0 0 0   XYZ
    dof rx ry rz
    limits (-20.0 45.0)
           (-30.0 30.0)
           (-30.0 30.0)
  end
  begin
     id 15 
     name upperneck
     direction -0.0510851 0.996117 -0.071696   
     length 1.68498   
     axis 0 0 0   XYZ
    dof rx ry rz
    limits (-20.0 45.0)
           (-30.0 30.0)
           (-30.0 30.0)
  end
  begin
     id 16
     name head
     direction -0.019188 0.999436 -0.0275702  
     length 1.83483  
     axis 0 0 0   XYZ
    dof rx ry rz
    limits (-20.0 45.0)
           (-30.0 30.0)
           (-30.0 30.0)
  end
  begin
     id 17 
     name lclavicle
     direction 0.967006 0.248456 -0.0562957  
     length 3.39395  
     axis 0 0 0   XYZ
    dof ry rz
    limits (-20.0 10.0)
           (0.0 20.0)
  end
  begin
     id 18 
     name lhumerus
     direction 1 -4.48962e-011 -5.62711e-019   
     length 5.24318   
     axis 180 -30 -90   XYZ
    dof rx ry rz
    limits (-60.0 90.0)
           (-90.0 90.0)
           (-90.0 90.0)
  end
  begin
     id 19
     name lradius
     direction 1 -4.48966e-011 7.90625e-027   
     length 2.98999   
     axis 180 -30 -90   XYZ
    dof rx
    limits (-10.0 170.0)
  end
  begin
     id 20
     name lwrist
     direction 1 -4.48959e-011 1.61068e-026   
     length 1.49499   
     axis -9.31229e-015 90 90   XYZ
    dof ry
    limits (-180.0 0.0)
 end
  begin
     id 21 
     name lhand
     direction 1 -4.49017e-011 3.22136e-026   
     length 0.726745   
     axis -2.0555e-014 90 90   XYZ
    dof rx rz
    limits (-90.0 90.0)
           (-45.0 45.0)
  end
  begin
     id 22 
     name lfingers
     direction 1 -4.4898e-011 6.44272e-026   
     length 0.58592   
     axis -4.11101e-014 90 90   XYZ
    dof rx
    limits (0.0 90.0)
  end
  begin
     id 23
     name lthumb
     direction 0.707107 -6.34922e-011 0.707107   
     length 0.841268   
     axis -90 45 2.85299e-015   XYZ
    dof rx rz
    limits (-45.0 45.0)
           (-45.0 45.0)
  end
  begin
     id 24 
     name rclavicle
     direction -0.972232 0.230238 0.0419005   
     length 3.40416  
     axis 0 0 0   XYZ 
    dof ry rz
    limits (-10.0 20.0)
           (-20.0 0.0)
  end
  begin
     id 25 
     name rhumerus
     direction -1 -4.48976e-011 2.48487e-027  
     length 5.37045   
     axis 180 30 90   XYZ
    dof rx ry rz
    limits (-90.0 60.0)
           (-90.0 90.0)
           (-90.0 90.0)
  end
  begin
     id 26 
     name rradius
     direction -1 -4.48942e-011 7.87951e-027   
     length 2.92792   
     axis 180 30 90   XYZ
    dof rx
    limits (-10.0 170.0)
  end
  begin
     id 27 
     name rwrist
     direction -1 -4.48969e-011 1.61068e-026   
     length 1.46396   
     axis -9.31229e-015 -90 -90   XYZ
    dof ry
    limits (-180.0 0.0)
  end
  begin
     id 28
     name rhand
     direction -1 -4.49043e-011 3.22136e-026   
     length 0.784497   
     axis -2.0555e-014 -90 -90   XYZ
    dof rx rz
    limits (-90.0 90.0)
           (-45.0 45.0)
  end
  begin
     id 29
     name rfingers
     direction -1 -4.48823e-011 6.44272e-026   
     length 0.632482   
     axis -4.11101e-014 -90 -90   XYZ
    dof rx
    limits (0.0 90.0)
  end
  begin
     id 30
     name rthumb
     direction -0.707107 -6.34923e-011 0.707107   
     length 0.908121   
     axis -90 -45 -2.85299e-015   XYZ
    dof rx rz
    limits (-45.0 45.0)
           (-45.0 45.0)
  end
:hierarchy
  begin
    root lhipjoint rhipjoint lowerback
    lhipjoint lfemur
    lfemur ltibia
    ltibia lfoot
    lfoot ltoes
    rhipjoint rfemur
    rfemur rtibia
    rtibia rfoot
    rfoot rtoes
    lowerback upperback
    upperback thorax
    thorax lowerneck lclavicle rclavicle
    lowerneck upperneck
    upperneck head
    lclavicle lhumerus
    lhumerus lradius
    lradius lwrist
    lwrist lhand lthumb
    lhand lfingers
    rclavicle rhumerus
    rhumerus rradius
    rradius rwrist
    rwrist rhand rthumb
    rhand rfingers
  end

#!OML:ASF E:\Style6\Style6.ASF
:FULLY-SPECIFIED
:DEGREES
2180
root 1.52556 16.9956 0.179796 17.1629 -58.0047 -3.56759
lowerback 8.52556 -3.90832 3.17078
upperback 2.96397 -4.92713 2.98104
thorax -1.6921 -2.48653 1.79145
lowerneck 3.52667 -2.18642 0.998685
upperneck -13.5993 -3.80565 -5.46137
head -4.77689 -1.69094 -1.64431
rclavicle 1.89839e-014 1.92821e-014
rhumerus 9.09451 17.71 -93.0785
rradius 137.034
rwrist 52.1897
rhand 30.9851 -6.22618
rfingers 7.12502
rthumb 54.5904 -24.6571
lclavicle 1.89839e-014 1.92821e-014
lhumerus 4.30385 -21.2391 94.7697
lradius 132.238
lwrist -32.5691
lhand 6.78797 36.7103
lfingers 7.12502
lthumb 32.0738 63.9014
rfemur -49.4372 19.5905 12.4355
rtibia 39.7427
rfoot 10.7277 22.6426
rtoes 35.072
lfemur -35.5473 31.9197 -30.8509
ltibia 49.3545
lfoot -24.3393 24.6212
ltoes -8.78535
2181
root 1.52686 16.9906 0.176929 17.0453 -58.0679 -3.34874
lowerback 8.53766 -3.89752 2.99927
upperback 2.93734 -4.92445 2.96769
thorax -1.71361 -2.48543 1.8741
lowerneck 3.52922 -2.18301 1.03386
upperneck -13.6105 -3.79803 -5.45688
head -4.78094 -1.68895 -1.64909
rclavicle 1.07344e-014 2.0276e-014
rhumerus 9.12018 17.7235 -93.0724
rradius 137.049
rwrist 52.1358
rhand 30.9367 -6.24615
rfingers 7.12502
rthumb 54.5471 -24.7074
lclavicle 1.07344e-014 2.0276e-014
lhumerus 4.37178 -21.2553 94.6635
lradius 132.209
lwrist -32.5274
lhand 6.20786 36.8855
lfingers 7.12502
lthumb 31.5214 64.1863
rfemur -49.5829 19.5442 12.2948
rtibia 39.8013
rfoot 10.7751 22.6325
rtoes 35.1013
lfemur -35.7361 32.0929 -31.0745
ltibia 49.5023
lfoot -24.3559 24.4975
ltoes -9.01711
2182
root 1.5324 16.9817 0.165909 17.3232 -57.9148 -3.63995
lowerback 8.76858 -3.9455 3.1699
upperback 2.85113 -4.95604 3.00656
thorax -1.94034 -2.50161 1.8457
lowerneck 3.54232 -2.15642 1.07198
upperneck -13.5334 -3.74393 -5.40527
head -4.75729 -1.66684 -1.64243
rclavicle 1.13407e-013 -3.04141e-014
rhumerus 9.07247 17.7389 -93.1883
rradius 137.047
rwrist 52.1476
rhand 31.0923 -6.36271
rfingers 7.12502
rthumb 54.6862 -24.726
lclavicle 1.13407e-013 -3.04141e-014
lhumerus 4.36304 -21.2795 94.5446
lradius 132.196
lwrist -32.4662
lhand 6.13842 36.9771
lfingers 7.12502
lthumb 31.4552 64.2908
rfemur -49.6771 19.5041 12.4802
rtibia 39.8431
rfoot 10.643 22.6354
rtoes 34.802
lfemur -36.0006 32.1358 -30.9214
ltibia 49.7447
lfoot -24.2446 24.4643
ltoes -9.64839
2183
root 1.54196 16.9658 0.147705 17.8058 -57.6045 -4.15062
lowerback 9.00529 -4.00862 3.39242
upperback 2.80147 -5.00291 3.15446
thorax -2.12671 -2.52685 1.90201
lowerneck 3.49127 -2.13588 1.0489
upperneck -13.5045 -3.71022 -5.3656
head -4.73752 -1.65257 -1.62886
rclavicle -8.60738e-014 2.50469e-014
rhumerus 9.15469 17.8129 -93.1819
rradius 136.995
rwrist 52.1878
rhand 31.0987 -6.50095
rfingers 7.12502
rthumb 54.6919 -24.8601
lclavicle -8.60738e-014 2.50469e-014
lhumerus 4.48236 -21.2781 94.4782
lradius 132.17
lwrist -32.4866
lhand 6.24466 36.9232
lfingers 7.12502
lthumb 31.5564 64.2171
rfemur -49.8183 19.4604 12.7895
rtibia 39.8817
rfoot 10.4515 22.5565
rtoes 34.3063
lfemur -36.3728 32.0318 -30.6067
ltibia 50.0316
lfoot -24.3046 24.2974
ltoes -9.5811
2184
root 1.54837 16.9566 0.137944 18.0141 -57.4347 -4.36478
lowerback 9.15128 -4.04421 3.48796
upperback 2.78149 -5.03111 3.22083
thorax -2.22945 -2.5419 1.93382
lowerneck 3.45841 -2.12795 1.06241
upperneck -13.5013 -3.69373 -5.33508
head -4.73005 -1.64743 -1.62296
rclavicle 3.67752e-015 1.61016e-014
rhumerus 9.23955 17.876 -93.1636
rradius 136.944
rwrist 52.1862
rhand 30.9534 -6.62666
rfingers 7.12502
rthumb 54.562 -25.0775
lclavicle 3.67752e-015 1.61016e-014
lhumerus 4.57069 -21.2738 94.4254
lradius 132.137
lwrist -32.5444
lhand 6.2375 36.9476
lfingers 7.12502
lthumb 31.5496 64.2428
rfemur -49.9041 19.4106 12.9209
rtibia 39.9097
rfoot 10.6321 22.3531
rtoes 34.8377
lfemur -36.5995 31.9719 -30.4676
ltibia 50.2678
lfoot -24.5121 24.1209
ltoes -9.03121
2185
root 1.54894 16.9513 0.134385 18.0179 -57.4852 -4.35517
lowerback 9.2295 -4.0219 3.41252
upperback 2.76359 -5.0026 3.23065
thorax -2.28411 -2.52798 1.98945
lowerneck 3.51562 -2.10467 1.05247
upperneck -13.5403 -3.66111 -5.30868
head -4.74998 -1.63059 -1.6142
rclavicle 1.17382e-013 -7.7526e-015
rhumerus 9.25292 17.9026 -93.1682
rradius 136.918
rwrist 52.1865
rhand 30.8969 -6.56634
rfingers 7.12502
rthumb 54.5115 -25.0526
lclavicle 1.17382e-013 -7.7526e-015
lhumerus 4.61291 -21.2768 94.3739
lradius 132.128
lwrist -32.5565
lhand 6.13615 37.0495
lfingers 7.12502
lthumb 31.453 64.3636
rfemur -49.9836 19.4536 12.8866
rtibia 39.9398
rfoot 10.7459 22.2813
rtoes 35.1091
lfemur -36.7221 32.0473 -30.5049
ltibia 50.4275
lfoot -24.5915 24.1005
ltoes -8.75768
2186
root 1.5486 16.946 0.130596 17.9998 -57.5469 -4.29064
lowerback 9.22993 -3.99637 3.27038
upperback 2.77645 -4.98225 3.25544
thorax -2.25712 -2.51806 2.09035
lowerneck 3.53212 -2.05125 1.0478
upperneck -13.5824 -3.59745 -5.35106
head -4.76414 -1.59595 -1.6297
rclavicle 7.76254e-014 -1.61016e-014
rhumerus 9.32111 17.9606 -93.1048
rradius 136.895
rwrist 52.1507
rhand 30.9246 -6.44981
rfingers 7.12502
rthumb 54.5362 -24.9187
lclavicle 7.76254e-014 -1.61016e-014
lhumerus 4.72896 -21.22 94.335
lradius 132.106
lwrist -32.5549
lhand 6.12099 37.0402
lfingers 7.12502
lthumb 31.4386 64.3572
rfemur -50.0799 19.4834 12.8259
rtibia 39.9574
rfoot 10.7659 22.2647
rtoes 35.0972
lfemur -36.8447 32.1617 -30.5994
ltibia 50.5054
lfoot -24.5369 24.0894
ltoes -9.01355
2187
root 1.55102 16.9454 0.128737 18.1288 -57.4739 -4.39956
lowerback 9.19446 -4.00893 3.3615
upperback 2.80958 -4.99453 3.2787
thorax -2.20847 -2.52443 2.06107
lowerneck 3.45366 -2.01169 1.03803
upperneck -13.5293 -3.54377 -5.37241
head -4.73291 -1.56998 -1.63853
rclavicle 7.45443e-014 -4.79071e-014
rhumerus 9.40247 18.0216 -93.048
rradius 136.865
rwrist 52.1098
rhand 30.8445 -6.54015
rfingers 7.12502
rthumb 54.4645 -25.0592
lclavicle 7.45443e-014 -4.79071e-014
lhumerus 4.89992 -21.1598 94.2536
lradius 132.052
lwrist -32.5938
lhand 6.19588 36.9579
lfingers 7.12502
lthumb 31.5099 64.261
rfemur -50.1126 19.414 12.9131
rtibia 39.9621
rfoot 10.6418 22.3369
rtoes 34.6956
lfemur -36.9445 32.236 -30.5748
ltibia 50.5506
lfoot -24.4707 24.0271
ltoes -9.32746
2188
root 1.55317 16.947 0.126767 18.2084 -57.4052 -4.53739
lowerback 9.25126 -3.98798 3.4552
upperback 2.84097 -4.95695 3.30358
thorax -2.21285 -2.50625 2.03389
lowerneck 3.4804 -2.00455 1.07044
upperneck -13.552 -3.53705 -5.40598
head -4.74521 -1.56547 -1.6543
rclavicle 6.06293e-014 -2.76311e-014
rhumerus 9.44006 18.0206 -93.0112
rradius 136.873
rwrist 52.1088
rhand 30.8228 -6.66275
rfingers 7.12502
rthumb 54.4451 -25.1953
lclavicle 6.06293e-014 -2.76311e-014
lhumerus 5.00538 -21.1466 94.2544
lradius 132.037
lwrist -32.6423
lhand 6.36384 36.961
lfingers 7.12502
lthumb 31.6699 64.2326
rfemur -50.0578 19.3935 13.0272
rtibia 39.9598
rfoot 10.4646 22.4045
rtoes 34.0143
lfemur -36.9356 32.2974 -30.4708
ltibia 50.5817
lfoot -24.4803 23.9082
ltoes -9.19472
2189
root 1.5544 16.9464 0.122965 18.238 -57.3368 -4.58464
lowerback 9.29184 -3.98285 3.50249
upperback 2.84943 -4.94402 3.29669
thorax -2.23097 -2.49985 2.00209
lowerneck 3.5267 -1.97918 1.12591
upperneck -13.5751 -3.50132 -5.42823
head -4.76007 -1.54779 -1.67175
rclavicle 7.196e-014 2.28602e-014
rhumerus 9.42491 17.9963 -93.0642
rradius 136.916
rwrist 52.1249
rhand 30.8928 -6.67191
rfingers 7.12502
rthumb 54.5078 -25.1607
lclavicle 7.196e-014 2.28602e-014
lhumerus 5.05741 -21.1368 94.2514
lradius 132.028
lwrist -32.6801
lhand 6.40828 36.9552
lfingers 7.12502
lthumb 31.7123 64.2184
rfemur -50.0886 19.3949 13.0559
rtibia 40.0169
rfoot 10.3304 22.4178
rtoes 33.6286
lfemur -36.9503 32.3683 -30.4356
ltibia 50.5624
lfoot -24.285 23.9109
ltoes -9.76114
2190
root 1.55089 16.9454 0.116232 18.1889 -57.2511 -4.52885
lowerback 9.29286 -3.97263 3.43406
upperback 2.86281 -4.93726 3.3055
thorax -2.21129 -2.49652 2.04749
lowerneck 3.46963 -1.9657 1.13411
upperneck -13.5011 -3.48248 -5.4684
head -4.7278 -1.53845 -1.68724
rclavicle 6.5102e-014 -6.16232e-015
rhumerus 9.41115 17.9722 -93.0276
rradius 136.965
rwrist 52.097
rhand 30.9585 -6.69427
rfingers 7.12502
rthumb 54.5665 -25.1419
lclavicle 6.5102e-014 -6.16232e-015
lhumerus 5.14819 -21.1428 94.2632
lradius 131.994
lwrist -32.7599
lhand 6.30803 36.9597
lfingers 7.12502
lthumb 31.6168 64.2418
rfemur -50.1437 19.4081 13.021
rtibia 40.1363
rfoot 10.1346 22.3857
rtoes 33.3791
lfemur -36.94 32.3945 -30.4362
ltibia 50.4903
lfoot -24.0603 23.8912
ltoes -10.3079
2191
root 1.54308 16.944 0.108754 17.5596 -57.3175 -3.606
lowerback 9.14098 -3.92583 2.75146
upperback 2.82376 -4.94217 3.25294
thorax -2.11704 -2.49777 2.35981
lowerneck 3.37337 -1.95443 1.07548
upperneck -13.3719 -3.46809 -5.50335
head -4.67113 -1.52992 -1.6903
rclavicle 5.23798e-014 1.98785e-016
rhumerus 9.41165 17.9734 -92.9096
rradius 136.996
rwrist 51.9825
rhand 30.9789 -6.61726
rfingers 7.12502
rthumb 54.5848 -25.052
lclavicle 5.23798e-014 1.98785e-016
lhumerus 5.21001 -21.0974 94.3148
lradius 132.009
lwrist -32.8113
lhand 6.28717 36.9512
lfingers 7.12502
lthumb 31.5969 64.2372
rfemur -50.4082 19.3561 12.3941
rtibia 40.2655
rfoot 10.0866 22.3511
rtoes 33.562
lfemur -37.0616 32.3889 -31.0741
ltibia 50.3923
lfoot -24.0115 23.8674
ltoes -10.472
2192
root 1.54531 16.9415 0.1072 16.9456 -57.449 -2.68662
lowerback 9.02314 -3.87624 2.18473
upperback 2.78272 -4.9299 3.17314
thorax -2.05553 -2.4905 2.58162
lowerneck 3.34374 -1.9322 1.01115
upperneck -13.3401 -3.4483 -5.55423
head -4.65561 -1.51544 -1.69676
rclavicle 6.82825e-014 -6.87795e-014
rhumerus 9.45793 18.0217 -92.795
rradius 136.982
rwrist 51.8403
rhand 30.9588 -6.65515
rfingers 7.12502
rthumb 54.5669 -25.1025
lclavicle 6.82825e-014 -6.87795e-014
lhumerus 5.30535 -21.0431 94.3523
lradius 132.014
lwrist -32.8479
lhand 6.26652 36.9646
lfingers 7.12502
lthumb 31.5772 64.2544
rfemur -50.6812 19.2373 11.7904
rtibia 40.3431
rfoot 10.0789 22.4533
rtoes 33.3487
lfemur -37.2389 32.4027 -31.7635
ltibia 50.3454
lfoot -24.0761 23.7686
ltoes -10.1034
2193
root 1.55072 16.9412 0.106528 17.368 -57.3623 -3.34689
lowerback 9.14601 -3.85237 2.567
upperback 2.866 -4.86341 3.2647
thorax -2.06142 -2.45914 2.46352
lowerneck 3.3281 -1.92172 1.02078
upperneck -13.3129 -3.43698 -5.59751
head -4.64506 -1.50851 -1.7125
rclavicle -3.91606e-014 1.19271e-014
rhumerus 9.50572 18.0606 -92.7278
rradius 136.973
rwrist 51.8138
rhand 30.8802 -6.74762
rfingers 7.12502
rthumb 54.4965 -25.2443
lclavicle -3.91606e-014 1.19271e-014
lhumerus 5.41052 -21.0451 94.3693
lradius 131.996
lwrist -32.8693
lhand 6.32232 36.9563
lfingers 7.12502
lthumb 31.6304 64.2357
rfemur -50.5167 19.301 12.2488
rtibia 40.3443
rfoot 9.88679 22.5236
rtoes 32.6701
lfemur -37.1505 32.5076 -31.3012
ltibia 50.3889
lfoot -23.9971 23.715
ltoes -9.89312
2194
root 1.54641 16.941 0.0988339 17.9345 -57.127 -4.17817
lowerback 9.23494 -3.85501 2.97972
upperback 2.94463 -4.82987 3.39903
thorax -2.05065 -2.44444 2.37397
lowerneck 3.25394 -1.93072 1.00366
upperneck -13.2232 -3.44511 -5.60439
head -4.60524 -1.51374 -1.71225
rclavicle 1.47101e-014 7.15625e-015
rhumerus 9.50447 18.0455 -92.6882
rradius 136.996
rwrist 51.8091
rhand 30.8317 -6.78843
rfingers 7.12502
rthumb 54.4531 -25.3154
lclavicle 1.47101e-014 7.15625e-015
lhumerus 5.48101 -21.0437 94.3598
lradius 131.971
lwrist -32.8321
lhand 6.24046 36.9191
lfingers 7.12502
lthumb 31.5524 64.2137
rfemur -50.2895 19.4135 12.7945
rtibia 40.2858
rfoot 9.88417 22.3768
rtoes 32.9756
lfemur -37.0694 32.5307 -30.6526
ltibia 50.4837
lfoot -24.0742 23.5625
ltoes -9.43015
